
<svg xmlns="http://www.w3.org/2000/svg" version="1.1" xmlns:xlink="http://www.w3.org/1999/xlink" preserveAspectRatio="none" x="0px" y="0px" width="100px" height="100px" viewBox="0 0 100 100">
<defs>
<path id="Layer0_0_1_STROKES" stroke="#FFFFFF" stroke-width="10" stroke-linejoin="miter" stroke-linecap="butt" stroke-miterlimit="4" fill="none" d="
M 94.98120651245117 24.383212280273437
L 49.455064392089845 5.006927490234375 49.48138008117676 44.101144409179696 94.98120651245117 24.773666381835934 94.98120651245117 24.383212280273437 Z
M 94.98120651245117 75.87434692382813
L 94.98120651245117 74.89821166992188 49.48138008117676 55.546330261230466 49.50769577026367 95.00659790039062 94.98120651245117 75.87434692382813 Z
M 94.98120651245117 74.89821166992188
L 94.98120651245117 24.773666381835934
M 4.981549835205078 24.578439331054685
L 4.981549835205078 75.09343872070313 49.455064392089845 55.52192687988281 49.48138008117676 55.546330261230466 49.48138008117676 44.101144409179696 49.455064392089845 44.101144409179696 4.981549835205078 24.578439331054685 Z
M 4.981549835205078 24.578439331054685
L 49.455064392089845 5.006927490234375
M 4.981549835205078 75.09343872070313
L 49.50769577026367 95.00659790039062"/>
</defs>

<g transform="matrix( 1.0526275634765625, 0, 0, 0.97613525390625, -2.65,1.2) ">
<use xlink:href="#Layer0_0_1_STROKES" transform="matrix( 0.9499969482421875, 0, 0, 1.024444580078125, 2.5,-1.2) "/>
</g>
</svg>
