
<svg xmlns="http://www.w3.org/2000/svg" version="1.1" xmlns:xlink="http://www.w3.org/1999/xlink" preserveAspectRatio="none" x="0px" y="0px" width="100px" height="100px" viewBox="0 0 100 100">
<defs>
<path id="Layer0_0_1_STROKES" stroke="#FFFFFF" stroke-width="10" stroke-linejoin="miter" stroke-linecap="butt" stroke-miterlimit="4" fill="none" d="
M 95 87
Q 95 89.8 82.95 92.3 69.55 95 50 95 30.5 95 17.05 92.3 5 89.8 5 87
L 5 13
Q 5 10.25 17.05 7.75 30.5 5 50 5 69.45 5 82.95 7.75 95 10.25 95 13
L 95 87
Q 89.9 83.15 82.95 81.75 69.45 78.95 50 78.95 30.5 78.95 17.05 81.75 10 83.15 5 87
M 95 13
Q 89.85 16.9 82.95 18.3 69.55 21 50 21 30.5 21 17.05 18.3 10.1 16.9 5 13"/>
</defs>

<g transform="matrix( 1, 0, 0, 1, 0,0) ">
<use xlink:href="#Layer0_0_1_STROKES"/>
</g>
</svg>
