
<svg xmlns="http://www.w3.org/2000/svg" version="1.1" xmlns:xlink="http://www.w3.org/1999/xlink" preserveAspectRatio="none" x="0px" y="0px" width="100px" height="100px" viewBox="0 0 100 100">
<defs>
<path id="Layer0_0_MEMBER_0_1_STROKES" stroke="#FFFFFF" stroke-width="10" stroke-linejoin="miter" stroke-linecap="butt" stroke-miterlimit="4" fill="none" d="
M 94.97816467285155 50.23928680419921
Q 94.97816467285155 56.808753967285156 81.78287200927734 61.4925407409668 68.64838714599607 66.17632751464843 49.98039245605467 66.17632751464843 31.31239776611328 66.17632751464843 18.11710510253907 61.4925407409668 4.982620239257798 56.808753967285156 4.982620239257798 50.23928680419921 4.982620239257798 43.60899124145509 18.11710510253907 38.92520446777344 31.31239776611328 34.241417694091794 49.98039245605467 34.241417694091794 68.64838714599607 34.241417694091794 81.78287200927734 38.92520446777344 94.97816467285155 43.60899124145509 94.97816467285155 50.23928680419921 Z"/>

<path id="Layer0_0_MEMBER_1_1_STROKES" stroke="#FFFFFF" stroke-width="10" stroke-linejoin="miter" stroke-linecap="butt" stroke-miterlimit="4" fill="none" d="
M 94.97816467285155 50.209346008300784
Q 94.97816467285155 68.88366470336915 81.78287200927734 82.02259902954101 68.64838714599607 95.2223617553711 49.98039245605467 95.2223617553711 31.31239776611328 95.2223617553711 18.11710510253907 82.02259902954101 4.982620239257798 68.88366470336915 4.982620239257798 50.209346008300784 4.982620239257798 31.535027313232426 18.11710510253907 18.335264587402342 31.31239776611328 5.196330261230468 49.98039245605467 5.196330261230468 68.64838714599607 5.196330261230468 81.78287200927734 18.335264587402342 94.97816467285155 31.535027313232426 94.97816467285155 50.209346008300784 Z"/>

<path id="Layer0_0_MEMBER_2_1_STROKES" stroke="#FFFFFF" stroke-width="10" stroke-linejoin="miter" stroke-linecap="butt" stroke-miterlimit="4" fill="none" d="
M 50.00621337890624 -6.005384826660157
L 50.00621337890624 106.04052734375"/>
</defs>

<g transform="matrix( 1.216156005859375, 0, 0, 1.2165679931640625, -127.7,-20.2) ">
<use xlink:href="#Layer0_0_MEMBER_0_1_STROKES" transform="matrix( 0.8222503662109375, 0, 0, 0.8219757080078125, 105,16.6) "/>
</g>

<g transform="matrix( 1.216156005859375, 0, 0, 1.2165679931640625, -127.7,-19.5) ">
<use xlink:href="#Layer0_0_MEMBER_1_1_STROKES" transform="matrix( 0.8222503662109375, 0, 0, 0.8219757080078125, 105,16) "/>
</g>

<g transform="matrix( 1.216156005859375, 0, 0, 1.2165679931640625, -70.15,-10.75) ">
<use xlink:href="#Layer0_0_MEMBER_2_1_STROKES" transform="matrix( 0.8222503662109375, 0, 0, 0.8219757080078125, 57.65,8.8) "/>
</g>
</svg>
