
<svg xmlns="http://www.w3.org/2000/svg" version="1.1" xmlns:xlink="http://www.w3.org/1999/xlink" preserveAspectRatio="none" x="0px" y="0px" width="100px" height="100px" viewBox="0 0 100 100">
<defs>
<path id="Layer0_0_MEMBER_0_1_STROKES" stroke="#FFFFFF" stroke-width="10" stroke-linejoin="miter" stroke-linecap="butt" stroke-miterlimit="4" fill="none" d="
M 95 49.95
Q 95 36.35 81.8 26.65 68.55 17 49.95 17 31.35 17 18.2 26.65 5 36.35 5 49.95 5 63.55 18.15 73.2 31.25 82.85 49.85 82.9 69 82.7 82 73.1 95 63.5 95 49.95 Z"/>

<path id="Layer0_0_MEMBER_0_MEMBER_0_1_STROKES" stroke="#FFFFFF" stroke-width="10" stroke-linejoin="miter" stroke-linecap="butt" stroke-miterlimit="4" fill="none" d="
M 69.3 51.2
Q 65.5 47.55 60.6 45.5 59.3 45 57.9 44.55 57.8 44.55 57.7 44.5 55.65 43.9 49.85 43.3 44.3 43.25 39.3 45.15 34.1 47.2 30.15 51.05 25.1 48.6 24.2 45.65 23.65 43.9 24.35 42.25 24.6 41.75 24.15 41.4 23.7 41.15 23.45 41.7 22.55 43.7 23.25 46.05 24.3 49.4 27.55 51.1 37.25 55.95 50 55.95 62.5 55.95 72.05 51.25 73.75 50.5 75 49 76.3 47.5 76.75 45.8 77.4 43.4 76.25 41.1 76.15 40.85 75.9 40.85 75.7 40.8 75.55 40.9 75.15 41.2 75.4 41.75 76.3 43.55 75.8 45.45 75.4 47 74.15 48.4 73 49.55 69.3 51.2 Z"/>

<path id="Layer0_0_MEMBER_1_1_STROKES" stroke="#FFFFFF" stroke-width="10" stroke-linejoin="miter" stroke-linecap="butt" stroke-miterlimit="4" fill="none" d="
M 49.55 2.25
L 49.55 99.9"/>
</defs>

<g transform="matrix( 1, 0, 0, 1, 0,0) ">
<use xlink:href="#Layer0_0_MEMBER_0_1_STROKES"/>
</g>

<g transform="matrix( 1, 0, 0, 1.353302001953125, 0,-17) ">
<use xlink:href="#Layer0_0_MEMBER_0_MEMBER_0_1_STROKES"/>
</g>

<g transform="matrix( 1, 0, 0, 0.9216461181640625, 0.5,2.95) ">
<use xlink:href="#Layer0_0_MEMBER_1_1_STROKES"/>
</g>
</svg>
