<svg width="193" height="83" viewBox="0 0 193 83" fill="none" xmlns="http://www.w3.org/2000/svg">
<path d="M137.961 24.3886C139.368 22.3761 140.543 21.1657 143.21 21.1657C146.518 21.1657 151.437 23.6638 151.437 27.8579C151.437 29.4764 150.473 31.0105 148.777 33.4312C146.842 36.0912 143.935 39.8842 142 42.0656C146.757 46.4216 150.311 50.2145 152 51.9878C153.534 53.5993 154.505 54.9715 154.505 56.9911C154.505 61.2626 150.226 64.9782 146.595 64.9782C143.935 64.9782 142.373 63.5215 140.79 61.6708C137.074 57.6315 133.753 54.0849 131.993 52.3116C128.722 55.2222 125.244 57.8916 121.586 60.2986C118.919 62.0719 113.599 65.4638 111.255 65.4638C107.223 65.4638 103.754 61.4245 103.754 57.3923C103.754 54.0849 105.928 52.8745 107.547 51.9878C113.76 48.6804 115.857 47.4701 121.501 43.0297C117.708 40.046 115.611 38.5894 109.538 34.5853C107.687 33.3749 106.477 32.1646 106.477 29.6594C106.477 26.6686 109.137 22.2353 113.416 22.2353C115.189 22.2353 116.399 22.6364 120.755 25.4653C125.273 28.3645 127.94 30.3912 131.487 33.1286C133.862 30.3952 136.02 27.48 137.94 24.4097L137.961 24.3886ZM153.351 5.14941C155.131 5.14941 159.811 5.1494 159.811 11.6094C159.811 17.816 155.694 18.1397 153.351 18.1397H103.029C102.735 18.1114 102.439 18.1483 102.162 18.2479C101.884 18.3475 101.632 18.5073 101.424 18.7158C101.215 18.9244 101.055 19.1764 100.956 19.454C100.856 19.7315 100.819 20.0277 100.848 20.3212V67.3778C100.819 67.6713 100.856 67.9675 100.956 68.2451C101.055 68.5226 101.215 68.7747 101.424 68.9832C101.632 69.1917 101.884 69.3515 102.162 69.4511C102.439 69.5507 102.735 69.5877 103.029 69.5593H154.399C156.257 69.5593 160.859 69.6437 160.859 75.773C160.859 81.4026 158.115 82.4722 154.399 82.4722H98.0257C91.0872 82.4722 86.886 80.2133 86.886 71.3326V16.3453C86.886 7.47163 91.1646 5.1283 98.0257 5.1283L153.351 5.14941Z" fill="#979AA4"/>
<path d="M173.111 5.1283C174.159 5.1283 174.856 5.55051 175.771 6.59903L181.302 12.7001C183.617 15.2194 184.595 15.9231 186.003 15.9231C186.37 15.9222 186.734 15.8455 187.071 15.6977C187.408 15.5498 187.711 15.3341 187.96 15.064C188.21 14.7939 188.401 14.4751 188.522 14.1277C188.643 13.7803 188.691 13.4117 188.663 13.0449C188.663 11.6375 187.959 10.6664 186.552 9.89235C186.097 9.66837 185.717 9.31837 185.456 8.88413C185.195 8.44989 185.065 7.94977 185.081 7.44348C185.026 6.90428 185.187 6.36521 185.528 5.94442C185.87 5.52364 186.364 5.25546 186.903 5.19867H187.255C187.661 5.19414 188.065 5.26573 188.445 5.40977C190.901 6.32459 192.786 9.1957 192.786 13.1153C192.786 18.0412 190.197 21.2431 186.411 21.2431C183.681 21.2431 182.069 19.8357 178.987 16.4086L175.06 12.1372H174.99V19.5612C174.99 20.1211 174.767 20.6581 174.371 21.054C173.975 21.4499 173.439 21.6723 172.879 21.6723C172.319 21.6723 171.782 21.4499 171.386 21.054C170.99 20.6581 170.768 20.1211 170.768 19.5612V7.65459C170.768 5.97274 171.746 5.1283 173.083 5.1283" fill="#979AA4"/>
<path d="M181.464 23.7695C188.543 23.7695 192.674 27.3443 192.674 32.9177C192.674 38.491 188.452 42.0658 181.464 42.0658C174.476 42.0658 170.205 38.5473 170.205 32.9177C170.205 27.288 174.483 23.7695 181.464 23.7695ZM181.534 36.591C186.228 36.591 188.571 35.1836 188.571 32.9458C188.571 30.708 186.256 29.3006 181.534 29.3006C176.812 29.3006 174.497 30.708 174.497 32.9458C174.497 35.1836 176.876 36.591 181.534 36.591Z" fill="#979AA4"/>
<path d="M173.062 54.9436H174.469V47.6603C174.469 45.6969 175.729 44.3669 177.481 44.3669C178.693 44.4385 179.87 44.7979 180.915 45.4155C183.505 46.8229 186.165 48.568 189.183 50.5314C191.773 52.1428 192.617 53.4729 192.617 55.5769C192.617 58.3073 191.14 60.0595 188.761 60.0595H178.741V60.9039C178.741 61.4638 178.518 62.0008 178.122 62.3967C177.726 62.7926 177.189 63.015 176.629 63.015C176.069 63.015 175.533 62.7926 175.137 62.3967C174.741 62.0008 174.518 61.4638 174.518 60.9039V60.0595H173.111C172.77 60.0614 172.432 59.9957 172.117 59.8663C171.801 59.7369 171.515 59.5463 171.273 59.3056C171.032 59.0649 170.84 58.7787 170.71 58.4636C170.58 58.1485 170.513 57.8108 170.514 57.4698C170.512 57.1376 170.576 56.8082 170.703 56.5009C170.829 56.1935 171.015 55.9143 171.25 55.6794C171.485 55.4444 171.764 55.2584 172.072 55.1321C172.379 55.0058 172.708 54.9417 173.041 54.9436V54.9436H173.062ZM188.452 55.1547V55.0139C185.302 52.7725 182.012 50.7369 178.6 48.9199H178.459V55.0843L188.452 55.1547Z" fill="#979AA4"/>
<path d="M173.814 66.1112C174.19 65.9444 174.593 65.849 175.004 65.8297C175.272 65.8184 175.539 65.8604 175.791 65.9532C176.042 66.046 176.273 66.1879 176.469 66.3705C176.666 66.5531 176.824 66.7729 176.935 67.017C177.045 67.2612 177.107 67.525 177.115 67.793V68.0675C177.101 68.5376 176.988 68.9996 176.783 69.4229C176.578 69.8462 176.286 70.2213 175.926 70.5234C175.45 70.9118 175.069 71.4045 174.814 71.9634C174.559 72.5222 174.436 73.1323 174.455 73.7463C174.455 76.6878 177.396 77.8771 181.316 77.8067H181.527V77.7364C179.5 77.0327 178.093 75.006 178.093 72.1067C178.093 68.1801 180.83 64.9571 185.031 64.9571C189.584 64.9571 192.772 68.6023 192.772 73.5774C192.772 77.096 191.301 79.9108 188.079 81.5645C186.074 82.5429 183.863 83.0256 181.633 82.9719C174.596 82.9719 170.282 79.3971 170.282 73.4437C170.211 69.7282 171.753 66.9978 173.857 66.09L173.814 66.1112ZM185.207 77.0186C185.654 77.026 186.099 76.9446 186.514 76.7791C186.929 76.6136 187.308 76.3672 187.627 76.0543C187.947 75.7414 188.201 75.3682 188.375 74.9563C188.549 74.5444 188.64 74.102 188.641 73.6548C188.642 72.7479 188.293 71.8756 187.666 71.2201C187.04 70.5645 186.184 70.1762 185.278 70.1363C184.367 70.127 183.49 70.4799 182.839 71.1173C182.189 71.7547 181.818 72.6245 181.809 73.5352C181.799 74.446 182.152 75.3232 182.789 75.9738C183.427 76.6244 184.297 76.9951 185.207 77.0045" fill="#979AA4"/>
<path d="M55.8318 74.4289H21.8148C20.52 74.4289 20.5199 73.0708 20.5199 72.0997C20.5199 71.2974 21.0829 71.0511 21.8148 71.0511H55.8599C56.5636 71.0511 57.1547 71.3748 57.1547 72.0997C57.1547 73.0708 57.1547 74.4289 55.8599 74.4289H55.8318ZM60.3003 62.8249H17.2618C13.3915 62.8249 10.5696 62.8249 8.63444 64.76C6.69926 66.6952 6.69222 69.4396 6.69222 71.3748V74.4289C6.69222 76.3641 6.69222 78.9467 8.63444 81.0437C10.4852 83 13.3704 83 17.2618 83H60.2721C64.3818 83 66.8095 83 68.8221 81.0648C70.8347 79.1296 70.8417 76.4626 70.8417 74.45V71.396C70.8417 68.4123 70.518 67.1737 69.4695 65.5904C68.0128 63.3315 65.9158 62.846 60.2721 62.846L60.3003 62.8249ZM55.9162 39.3704H21.8148C20.52 39.3704 20.5199 38.723 20.5199 37.9208C20.5199 37.1186 21.0055 36.1616 21.8148 36.1616H55.9443C56.648 36.1616 57.2321 37.196 57.2321 37.9208C57.2321 38.6456 57.2321 39.3704 55.9443 39.3704H55.9162ZM46.177 50.8127H32.1029L30.6955 46.7171H47.1551L46.177 50.8127ZM72.3195 50.8127H60.434L61.3206 46.7171H62.531C68.9065 46.7171 70.518 45.8234 70.518 39.0467V37.5127C70.518 30.736 68.8221 29.2231 62.531 29.2231H15.1648C8.87368 29.2231 7.17777 30.736 7.17777 37.5127V39.0467C7.17777 45.9078 8.95109 46.7171 15.1648 46.7171H16.3752L17.5855 50.8127H5.40443C4.19406 50.8127 0 50.8126 0 55.4923C0 60.1719 4.27147 60.1719 5.40443 60.1719H72.2913C75.1061 60.1719 77.6184 59.3697 77.6184 55.4923C77.6184 51.0589 74.2265 50.8127 72.2913 50.8127H72.3195ZM5.40443 16.1483H31.8707V18.8012H9.52111C8.38815 18.8012 4.84148 18.8012 4.84148 22.6716C4.84148 26.542 8.36001 26.542 9.52111 26.542H68.2591C69.3077 26.542 72.9388 26.542 72.9388 22.6716C72.9388 18.8012 69.3077 18.8012 68.2591 18.8012H46.0714V16.1483H72.2139C73.4243 16.1483 77.6184 16.1483 77.6184 11.4686C77.6184 6.78903 73.3399 6.78903 72.2139 6.78903H46.0714C46.0714 6.73977 46.0714 6.68347 46.0714 6.62717C45.913 4.80456 45.072 3.10905 43.7166 1.88023C42.3613 0.651407 40.5917 -0.0200103 38.7623 0.00045442C36.9329 0.0209191 35.1788 0.731756 33.8513 1.99059C32.5238 3.24943 31.7208 4.96333 31.6033 6.78903H5.40443C3.9548 6.78903 0.077397 6.95088 0.077397 11.4686C0.077397 16.1483 4.19406 16.1483 5.40443 16.1483Z" fill="#979AA4"/>
</svg>
