<svg version="1.2" baseProfile="tiny-ps" xmlns="http://www.w3.org/2000/svg" viewBox="0 0 193 83" width="193" height="83">
	<title>logoWhite-svg</title>
	<style>
		tspan { white-space:pre }
		.s0 { fill: #ffffff } 
	</style>
	<g id="SvgjsG1008">
		<g id="Layer">
			<path id="Layer" fill-rule="evenodd" class="s0" d="m153.35 5.15c1.78 0 6.46 0 6.46 6.46c0 6.21-4.12 6.53-6.46 6.53h-50.32c-0.29-0.03-0.59 0.01-0.87 0.11c-0.28 0.1-0.53 0.26-0.74 0.47c-0.21 0.21-0.37 0.46-0.47 0.74c-0.1 0.28-0.14 0.57-0.11 0.87v47.06c-0.03 0.29 0.01 0.59 0.11 0.87c0.1 0.28 0.26 0.53 0.47 0.74c0.21 0.21 0.46 0.37 0.74 0.47c0.28 0.1 0.57 0.14 0.87 0.11h51.37c1.86 0 6.46 0.08 6.46 6.21c0 5.63-2.74 6.7-6.46 6.7h-56.37c-6.94 0-11.14-2.26-11.14-11.14v-54.99c0-8.87 4.28-11.22 11.14-11.22l55.33 0.02zm-15.39 19.24c1.41-2.01 2.58-3.22 5.25-3.22c3.31 0 8.23 2.5 8.23 6.69c0 1.62-0.96 3.15-2.66 5.57c-1.94 2.66-4.84 6.45-6.78 8.63c4.76 4.36 8.31 8.15 10 9.92c1.53 1.61 2.5 2.98 2.5 5c0 4.27-4.28 7.99-7.91 7.99c-2.66 0-4.22-1.46-5.81-3.31c-3.72-4.04-7.04-7.59-8.8-9.36c-3.27 2.91-6.75 5.58-10.41 7.99c-2.67 1.77-7.99 5.17-10.33 5.17c-4.03 0-7.5-4.04-7.5-8.07c0-3.31 2.17-4.52 3.79-5.4c6.21-3.31 8.31-4.52 13.95-8.96c-3.79-2.98-5.89-4.44-11.96-8.44c-1.85-1.21-3.06-2.42-3.06-4.93c0-2.99 2.66-7.42 6.94-7.42c1.77 0 2.98 0.4 7.34 3.23c4.52 2.9 7.19 4.93 10.73 7.66c2.38-2.73 4.53-5.65 6.45-8.72l0.02-0.02zm35.15-19.26c1.05 0 1.75 0.42 2.66 1.47l5.53 6.1c2.31 2.52 3.29 3.22 4.7 3.22c0.37 0 0.73-0.08 1.07-0.23c0.34-0.15 0.64-0.36 0.89-0.63c0.25-0.27 0.44-0.59 0.56-0.94c0.12-0.35 0.17-0.72 0.14-1.08c0-1.41-0.7-2.38-2.11-3.15c-0.45-0.22-0.83-0.57-1.1-1.01c-0.26-0.43-0.39-0.93-0.38-1.44c-0.05-0.54 0.11-1.08 0.45-1.5c0.34-0.42 0.84-0.69 1.37-0.75h0.35c0.41 0 0.81 0.07 1.19 0.21c2.46 0.91 4.34 3.79 4.34 7.71c0 4.93-2.59 8.13-6.38 8.13c-2.73 0-4.34-1.41-7.42-4.83l-3.93-4.27h-0.07v7.42c0 0.56-0.22 1.1-0.62 1.49c-0.4 0.4-0.93 0.62-1.49 0.62c-0.56 0-1.1-0.22-1.49-0.62c-0.4-0.4-0.62-0.93-0.62-1.49v-11.91c0-1.68 0.98-2.53 2.32-2.53h0.03zm8.35 18.64c7.08 0 11.21 3.57 11.21 9.15c0 5.57-4.22 9.15-11.21 9.15c-6.99 0-11.26-3.52-11.26-9.15c0-5.63 4.28-9.15 11.26-9.15zm0.07 12.82c4.69 0 7.04-1.41 7.04-3.65c0-2.24-2.31-3.65-7.04-3.65c-4.72 0-7.04 1.41-7.04 3.65c0 2.24 2.38 3.65 7.04 3.65zm-7.06 18.35v-7.28c0-1.96 1.26-3.29 3.01-3.29c1.21 0.07 2.39 0.43 3.43 1.05c2.59 1.41 5.25 3.15 8.27 5.12c2.59 1.61 3.43 2.94 3.43 5.05c0 2.73-1.48 4.48-3.86 4.48h-10.02v0.84c0 0.56-0.22 1.1-0.62 1.49c-0.4 0.4-0.93 0.62-1.49 0.62c-0.56 0-1.1-0.22-1.49-0.62c-0.4-0.4-0.62-0.93-0.62-1.49v-0.84h-1.41c-0.34 0-0.68-0.06-0.99-0.19c-0.32-0.13-0.6-0.32-0.84-0.56c-0.24-0.24-0.43-0.53-0.56-0.84c-0.13-0.32-0.2-0.65-0.2-0.99c0-0.33 0.06-0.66 0.19-0.97c0.13-0.31 0.31-0.59 0.55-0.82c0.23-0.23 0.51-0.42 0.82-0.55c0.31-0.13 0.64-0.19 0.97-0.19h1.43zm13.98 0.21v-0.14c-3.15-2.24-6.44-4.28-9.85-6.09h-0.14v6.16l9.99 0.07zm-14.64 10.96c0.38-0.17 0.78-0.26 1.19-0.28c0.27-0.01 0.53 0.03 0.79 0.12c0.25 0.09 0.48 0.23 0.68 0.42c0.2 0.18 0.35 0.4 0.47 0.65c0.11 0.24 0.17 0.51 0.18 0.78v0.27c-0.01 0.47-0.13 0.93-0.33 1.36c-0.2 0.42-0.5 0.8-0.86 1.1c-0.48 0.39-0.86 0.88-1.11 1.44c-0.25 0.56-0.38 1.17-0.36 1.78c0 2.94 2.94 4.13 6.86 4.06h0.21v-0.07c-2.03-0.7-3.43-2.73-3.43-5.63c0-3.93 2.74-7.15 6.94-7.15c4.55 0 7.74 3.65 7.74 8.62c0 3.52-1.47 6.33-4.69 7.99c-2 0.98-4.22 1.46-6.45 1.41c-7.04 0-11.35-3.57-11.35-9.53c-0.07-3.72 1.47-6.45 3.57-7.35l-0.04 0.02zm11.39 10.91c0.45 0.01 0.89-0.07 1.31-0.24c0.42-0.17 0.79-0.41 1.11-0.72c0.32-0.31 0.57-0.69 0.75-1.1c0.17-0.41 0.26-0.85 0.27-1.3c0-0.91-0.35-1.78-0.98-2.43c-0.63-0.66-1.48-1.04-2.39-1.08c-0.91-0.01-1.79 0.34-2.44 0.98c-0.65 0.64-1.02 1.51-1.03 2.42c-0.01 0.91 0.34 1.79 0.98 2.44c0.64 0.65 1.51 1.02 2.42 1.03v0.01zm-124.93-14.17c5.64 0 7.74 0.49 9.2 2.74c1.05 1.58 1.37 2.82 1.37 5.81v3.05c0 2.01-0.01 4.68-2.02 6.61c-2.01 1.94-4.44 1.94-8.55 1.94h-43.01c-3.89 0-6.78 0-8.63-1.96c-1.94-2.1-1.94-4.68-1.94-6.61v-3.05c0-1.94 0.01-4.68 1.94-6.61c1.94-1.94 4.76-1.94 8.63-1.94h43.04l-0.03 0.02zm-4.41 11.58c1.29 0 1.29-1.36 1.29-2.33c0-0.72-0.59-1.05-1.29-1.05h-34.05c-0.73 0-1.29 0.25-1.29 1.05c0 0.97 0 2.33 1.29 2.33h34.05zm16.43-23.62c1.94 0 5.33 0.25 5.33 4.68c0 3.88-2.51 4.68-5.33 4.68h-66.89c-1.13 0-5.4 0-5.4-4.68c0-4.68 4.19-4.68 5.4-4.68h12.18l-1.21-4.1h-1.21c-6.21 0-7.99-0.81-7.99-7.67v-1.53c0-6.78 1.7-8.29 7.99-8.29h47.37c6.29 0 7.99 1.51 7.99 8.29v1.53c0 6.78-1.61 7.67-7.99 7.67h-1.21l-0.89 4.1h11.86zm-25.14-4.1h-16.46l1.41 4.1h14.07l0.98-4.1zm8.79-7.35c1.29 0 1.29-0.72 1.29-1.45c0-0.72-0.58-1.76-1.29-1.76h-34.13c-0.81 0-1.29 0.96-1.29 1.76c0 0.8 0 1.45 1.29 1.45h34.13zm-55.87-27.9c0-4.52 3.88-4.68 5.33-4.68h26.2c0.12-1.83 0.92-3.54 2.25-4.8c1.33-1.26 3.08-1.97 4.91-1.99c1.83-0.02 3.6 0.65 4.95 1.88c1.36 1.23 2.2 2.92 2.35 4.75c0 0.06 0 0.11 0 0.16h26.14c1.13 0 5.4 0 5.4 4.68c0 4.68-4.19 4.68-5.4 4.68h-26.14v2.65h22.19c1.05 0 4.68 0 4.68 3.87c0 3.87-3.63 3.87-4.68 3.87h-58.74c-1.16 0-4.68 0-4.68-3.87c0-3.87 3.55-3.87 4.68-3.87h22.35v-2.65h-26.47c-1.21 0-5.33 0-5.33-4.68z" />
		</g>
	</g>
</svg>